<svg id="Group_8" data-name="Group 8" xmlns="http://www.w3.org/2000/svg" xmlns:xlink="http://www.w3.org/1999/xlink" width="190" height="96.088" viewBox="0 0 190 96.088">
  <defs>
    <clipPath id="clip-path">
      <rect id="Rectangle_4" data-name="Rectangle 4" width="190" height="96.088"/>
    </clipPath>
  </defs>
  <g id="Group_6" data-name="Group 6">
    <g id="Group_3" data-name="Group 3" clip-path="url(#clip-path)">
      <path id="Path_10" data-name="Path 10" d="M34.33,71.269a19.094,19.094,0,0,0,3.071-3.48c.614-1.024,1.256-2.033,1.781-3.1a21.36,21.36,0,0,0,1.331-3.03,20.6,20.6,0,0,0,.744-6.612c-.566-6.53-6.312-9.287-11.948-11.266-3.5-1.228-13.626-1.058-14.964-5.363C12.952,33.93,18.2,28.881,21.577,26.95c2.7-1.542,13.3-5.9,13.893-.014.5,4.811-9.068,7.4-7.922,1.365-1.508-.887-5.8,2.238-6.612,4.8-.873,2.743-.594,4.79,1.917,6.08,5.623,2.88,14.022-1.133,17.891-5.466,3.937-4.408,4.995-10.228.348-14.548-4.851-4.5-12.1-3.958-17.912-1.883C13.914,20.6,2.375,29.1.356,39.328c-2.886,14.6,12.589,14.4,22.34,17.12A25.423,25.423,0,0,1,25.971,57.8c2.122,1.337,3.344,3.016,3.473,4.169a4.925,4.925,0,0,1-.682,3.187c-.259.355-.525.71-.792,1.064a4.854,4.854,0,0,1-.942.928,15.168,15.168,0,0,1-2.579,1.624,13.355,13.355,0,0,1-6.407,1.419,10.075,10.075,0,0,1-2.456-.5,8.133,8.133,0,0,1-2.245-1.392,2,2,0,0,1,.143-3.043,4.873,4.873,0,0,1,2.586-.9,4.439,4.439,0,0,1,1.713.157.587.587,0,0,0,.655-.321,1.75,1.75,0,0,0,.177-1.03,4.655,4.655,0,0,0-1.331-2.682A4.752,4.752,0,0,0,15.477,59.4a11.291,11.291,0,0,0-2.068-.45,5.192,5.192,0,0,0-1.453-.027,11.242,11.242,0,0,0-2.7.655A5.227,5.227,0,0,0,7.09,61.061a10.551,10.551,0,0,0-2.2,4.333A7.909,7.909,0,0,0,4.6,67.086a9.1,9.1,0,0,0,.43,2.607,9.733,9.733,0,0,0,1.256,2.477,9.051,9.051,0,0,0,3.1,2.845,15.741,15.741,0,0,0,3.378,1.528,13.506,13.506,0,0,0,1.522.471A19.936,19.936,0,0,0,25.166,76.5c.457-.164.908-.355,1.351-.553,1.569-.71,3.1-1.515,4.606-2.347a36.305,36.305,0,0,0,3.207-2.327" transform="translate(-0.001 -4.999)" fill="#e9540d"/>
    </g>
    <g id="Group_4" data-name="Group 4" clip-path="url(#clip-path)">
      <path id="Path_11" data-name="Path 11" d="M64.09,45.972c0,.2.007.382.007.566v.007a4.492,4.492,0,0,0,.014.491,19.751,19.751,0,0,0,.218,2.75c.075.546.164,1.092.273,1.617a12.171,12.171,0,0,0,4,7.451,6.371,6.371,0,0,0,5.022,1.262c.989-.136,3.118-.573,4-1.563.328-.368-1.624-2.252-2.34-3.835a19.339,19.339,0,0,1-1.59-5.445,28.7,28.7,0,0,1-.136-3.473,68.006,68.006,0,0,1,2.129-10.624c.314-1.644,2.013-2.422,3.541-2.866,1.037-.307,1.242.778,1.2,1.447-.014.246-.212,1.085-.259,1.331-.177.853-1.337,5.527-1.494,7.26-.055.621-.1,1.235-.171,1.856-.723,6.291,2.859,10.426,4.292,10.9a6.64,6.64,0,0,0,5.07.539c3.555-1.064,6.482-5.275,7.724-7.253a16.159,16.159,0,0,0,1.174,1.46,4.88,4.88,0,0,0,.389.362,10.2,10.2,0,0,0,3.657,2.108,11.761,11.761,0,0,0,6.128.068,15.582,15.582,0,0,0,4.92-2.7,9.668,9.668,0,0,0,1.16-1.085c3.951-4.435,4.783-10.208,4.892-13.886a10.435,10.435,0,0,0,1.965-.587,11.971,11.971,0,0,0,2.784-1.6c-1.535,5.82-4.271,11.8-1.344,17.052a6.319,6.319,0,0,0,4.176,2.968c.962.225,3.084.594,4.251-.007.437-.225-.689-2.668-.778-4.381a19.02,19.02,0,0,1,.491-5.6c.212-.846,5.609-16.178,7.554-15.8,1.3.252.457,5.227-.321,6.5-.662,1.071-.662,1.105.43,1.61.764.355,6.346,1.4,8.952-5.657,1.638-4.435-3.009-11.354-8.325-8.679-2.927,1.474-5.82,6.707-5.786,6.3a5.988,5.988,0,0,0-1.528-4.947,8.363,8.363,0,0,0-6.291-2.634c-2.2.048-3.323-.068-1.992,2.211a10.454,10.454,0,0,1,1.385,5.616h0c-.136.177-.273.362-.416.532-.041.048-.3.341-.389.444s-.382.362-.43.4a6.416,6.416,0,0,1-2.122,1.29,8.634,8.634,0,0,1-2.416.519,14.913,14.913,0,0,0-1.412-4.988,14.553,14.553,0,0,0-3.835-5.37,10.632,10.632,0,0,0-5.384-2.368,11.186,11.186,0,0,0-5.247.512A7.268,7.268,0,0,0,99,20.118a9.921,9.921,0,0,0-1.829,2.907,8.212,8.212,0,0,0-.566,2.443,3.556,3.556,0,0,0,.055.928,9.062,9.062,0,0,0,.73,2.265,3.815,3.815,0,0,0,.4.682A8.5,8.5,0,0,0,99.756,31.3c.471.328.914.7,1.412.989a22.4,22.4,0,0,0,6.967,2.682c.089.014.362.082.444.1.1.014.252.027.273.123a2.914,2.914,0,0,1-.02.689,60.75,60.75,0,0,1-1.344,7.635c-.792,2.716-1.508,2.613-2.443,2.579-1.044-.034-1.876-.826-2.163-2.272a20.449,20.449,0,0,1,.334-7.547.441.441,0,0,0-.246-.437,21.349,21.349,0,0,1-2.948-1.146c-.566-.348-1.119-.71-1.672-1.078a10.7,10.7,0,0,1-2.982-2.982c-.246-.368-.5-.73-.751-1.085a.188.188,0,0,0-.239-.055c-.041.014-.1.034-.109.061a5.511,5.511,0,0,0-.423,1.385,58.182,58.182,0,0,0-.894,6.052,29.6,29.6,0,0,0,.409,5.82,20.9,20.9,0,0,0,.539,2.04c-.375.7-.71,1.344-.764,1.426a9.7,9.7,0,0,1-1.979,2.211,1.517,1.517,0,0,1-2.04.027,3.106,3.106,0,0,1-.628-.676,3.522,3.522,0,0,1-.621-1.917,32.023,32.023,0,0,1,.594-7.219c.464-2.313,1.215-4.265,1.542-6.591.246-1.713.607-3.2-.109-4.736A4.944,4.944,0,0,0,87,24.915a3.227,3.227,0,0,0-.71-.2,10.137,10.137,0,0,0-4-.157c-1.767.314-4.094,2.095-4.108,1.952a1.291,1.291,0,0,1-.007-.362,55.657,55.657,0,0,0,1.064-7.4,10.753,10.753,0,0,0-1.4-5.343,6.255,6.255,0,0,0-2.422-2.688,7.263,7.263,0,0,0-4.21-1.262c-.43.034-.867-.061-1.3-.041a8.632,8.632,0,0,0-3.439.7.513.513,0,0,0-.212.778c.232.287.471.573.73.839a6.733,6.733,0,0,1,1.747,3.03,16.4,16.4,0,0,1,.532,8.263c-.041.177-.055.368-.082.553a55.766,55.766,0,0,1-1.276,6c-.546,2.033-1.167,4.046-1.767,6.066-.471,1.6-.935,3.207-1.249,4.858a40.629,40.629,0,0,0-.757,5.466Zm42.469-16.049c-2.286-.826-1.958-2.8-1.133-4.442,2.211-4.415,5.09-.007,3.787,4.858-.123.464-1.18.116-2.654-.416" transform="translate(-20.358 -2.991)" fill="#e9540d"/>
    </g>
    <g id="Group_5" data-name="Group 5" clip-path="url(#clip-path)">
      <path id="Path_12" data-name="Path 12" d="M200.691,47.044c-3.207-2.129-6.3-1.01-7.786,1.112a14.734,14.734,0,0,0-1.849,3.309,39.6,39.6,0,0,1-6.039-1.44,33.6,33.6,0,0,1-6.653-3.8c.737-1,1.447-1.9,2.1-2.7-.014.027.007,0,.041-.048.252-.307.491-.594.73-.867.007-.014.02-.02.027-.034.252-.28.5-.553.757-.832a10.113,10.113,0,0,0,1.453-1.781c1.426-2.532-.785-4.7-2.709-6.107a7.156,7.156,0,0,0-3.248-1.685,3.633,3.633,0,0,0-2.825,1.583,8.859,8.859,0,0,0-1.542,2.02.665.665,0,0,0-.034.075,96.344,96.344,0,0,0-7.206,12.084,20.517,20.517,0,0,1-2.2,3.746,1.833,1.833,0,0,1-2.088.4c-3.043-1.215-.812-6.353.157-8.714,1.781-4.326,7.861-12.535,8.052-12.719a6.958,6.958,0,0,0,.7-.955c.266-.423.116-1-.45-1.692-1.481-1.815-6.291-3.848-8.386-3.9a1.9,1.9,0,0,0-1.474.962,81.524,81.524,0,0,0-7.772,15.169,24.9,24.9,0,0,0-1.167,3.569l-.1-.423a6.785,6.785,0,0,1-1.167,1.87,7.157,7.157,0,0,1-2.491,1.61,1.753,1.753,0,0,1-.614.164c-1.972-.055-1.508-2.136-1.18-3.616a33.3,33.3,0,0,1,1.283-4.34,88.523,88.523,0,0,1,3.719-8.1c1.767-3.6,3.964-7.233,5.541-11.02h0c.136-.239.341-.682.58-1.242,6.653,1.372,12.774,3.064,19.174,6.687,5.391,3.05,16.028,9.4,9.457,17.775-1.829,2.327,7.294,4.551,11.764-2.061,4.135-6.114,3.446-17.27-23.1-25.029-4.415-1.29-10.044-1.624-15.291-2.368.136-.355.246-.635.314-.805a10.772,10.772,0,0,0,.56-5.493,6.25,6.25,0,0,0-1.331-3.364,7.213,7.213,0,0,0-3.5-2.648c-.416-.123-.792-.362-1.208-.491a8.561,8.561,0,0,0-3.466-.546.518.518,0,0,0-.471.655,9.635,9.635,0,0,0,.4,1.044,6.715,6.715,0,0,1,.58,3.453,23.758,23.758,0,0,1-1.174,5.65c-4.954-1.03-9.225-3.05-8.3-8.447.553-3.2-10.979-3.951-11.641-.089-1.215,7.069,6.98,11.15,12.746,12.214,1.883.348,3.3.7,4.954,1.024-.075.157-.15.314-.218.471-.573,1.235-1.146,2.463-1.651,3.582-2.327,5.1-5.159,10-7.274,15.2-.437,1-.832,1.931-1.058,2.525s-.648,1.542-.846,2.129c-2.156,6.441-.273,9.648,1.46,11.266A8.262,8.262,0,0,0,142.9,52.9c3.378.2,6.271-2.34,7.813-3.944-.007.109-.007.177-.007.177-.109,4.9,4.715,7.328,6.353,7.881a9.627,9.627,0,0,0,3.767.716q-1.146,2.61-2.163,5.268c-3.193-1.378-6.059-2.559-6.428-2.7-1.972-.73-3.985-1.392-5.991-2.033-9.246-2.948-18.73-4.1-28.393-4.585v-.027a132.635,132.635,0,0,0-32.159,2.361A113.928,113.928,0,0,0,55.576,66.437C47.695,70.51,38.865,76.372,41.1,86.586c.846,3.876,3.439,6.953,7.8,8.761,1.064.444,3.555,1.221,4.21.375.082-.109-.1-1.979-.082-2.293a10.259,10.259,0,0,1,.73-3.378c3.309-8.1,11.518-12.7,19.092-16.267A111.567,111.567,0,0,1,99.622,65.2a104.826,104.826,0,0,1,50.671,2.511c2.265.7,4.326,1.4,6.134,2.04a20.458,20.458,0,0,0-.723,5.493c.007.2.014.4.027.6-.273,6.578,5.52,9.225,6.987,9.874,3.139,1.385,9.437,1.849,12.016-4.811.4-1.024,1.617-3.644-.778-7.956a16.434,16.434,0,0,0-2.975-3.541,18.174,18.174,0,0,0-3.923-2.511.171.171,0,0,1-.048-.027,91.087,91.087,0,0,1,8.243-16.124,18.5,18.5,0,0,0,2.518,1.269,42.224,42.224,0,0,0,4.858,1.7,47.834,47.834,0,0,0,7.247,1.59c-.921,3.268-2.081,7.062-5.036,7.308-2.463.2-3.419-1.46-3.425-3.3,0-1.447,1.5-2.115.641-2.47-3.685-1.522-6.23,1.317-6.987,2.62a8.652,8.652,0,0,0-.621,6.407,10.568,10.568,0,0,0,19.392,1.651,26.1,26.1,0,0,0,2.047-6.046c.437-1.631,1.146-4.544,1.563-6.087.389-.048.771-.109,1.153-.177a2.5,2.5,0,0,0,.689-.239,4.434,4.434,0,0,0,3.46-3.2c.655-1.917-.464-3.678-2.061-4.735m-34.1,35.182c-1.372-.287-2.961-1.76-2.723-4.865a14.913,14.913,0,0,1,.853-3.992,22.193,22.193,0,0,1,3.719,2.061c1.085,1.037,2.156,1.972,2.108,4.353-.423,2.491-2.572,2.736-3.958,2.443" transform="translate(-12.943 -0.003)" fill="#e9540d"/>
    </g>
  </g>
  <path id="Path_13" data-name="Path 13" d="M90.823,128.588l-4.223-8.5,2.447-1.216,3.283,6.6,3.318-1.652.947,1.894Z" transform="translate(-27.55 -37.953)" fill="#fbdedd"/>
  <rect id="Rectangle_7" data-name="Rectangle 7" width="2.737" height="9.49" transform="translate(69.889 77.314) rotate(-21.192)" fill="#fbdedd"/>
  <g id="Group_7" data-name="Group 7" transform="translate(78.311 70.424)">
    <path id="Path_14" data-name="Path 14" d="M124.939,118.92a3.566,3.566,0,0,1-3.995-1.845c-.152.021-.3.041-.442.062a4.5,4.5,0,0,1-5.018-3.656c-.643-2.7.5-5.308,3.974-6.137a4.513,4.513,0,0,1,5.8,3.525,4.687,4.687,0,0,1-1.742,5.163,3.086,3.086,0,0,0,3.069.65,4.136,4.136,0,0,0,.67-.249,2.879,2.879,0,0,1-2.315,2.488m-5.287-9.573c-1.182.283-1.79,1.59-1.4,3.214.463,1.956,1.638,2.723,2.861,2.433,1.168-.276,1.79-1.59,1.4-3.214-.463-1.956-1.652-2.716-2.861-2.433" transform="translate(-115.313 -104.764)" fill="#fbdedd"/>
    <path id="Path_15" data-name="Path 15" d="M141.271,113.712c-2.543.228-4.251-.85-4.458-3.083l-.553-6.158,2.737-.249.532,5.868a1.6,1.6,0,0,0,1.8,1.59,1.541,1.541,0,0,0,1.431-1.866l-.532-5.882,2.668-.242.532,5.923c.214,2.322-1.272,3.843-4.154,4.1" transform="translate(-121.782 -103.688)" fill="#fbdedd"/>
    <path id="Path_16" data-name="Path 16" d="M161.141,113.476a4.526,4.526,0,0,1-4.527-5.066c.173-2.758,2.1-4.928,5.6-4.707a4.516,4.516,0,0,1,4.513,5.066c-.173,2.758-2.087,4.928-5.585,4.707m.67-7.8c-1.21-.076-2.177,1-2.281,2.668-.131,2,.767,3.083,2.025,3.166,1.2.076,2.177-1,2.281-2.668.118-2.011-.788-3.089-2.025-3.166" transform="translate(-128.065 -103.688)" fill="#fbdedd"/>
    <path id="Path_17" data-name="Path 17" d="M182.775,115.765c-.684-2.882-.905-3.642-1.251-3.857l-1.03-.18-.608,3.532-2.626-.449,1.61-9.351c1.23.166,2.723.38,3.891.581,2.405.415,3.635,1.6,3.352,3.255a2.777,2.777,0,0,1-2.239,2.149c.511.325.864,1.14,2.018,4.852Zm-.864-8.107-.7-.117-.449,2.6,1.5.256a1.562,1.562,0,0,0,1-1.216c.138-.753-.339-1.348-1.348-1.521" transform="translate(-134.445 -104.235)" fill="#fbdedd"/>
  </g>
</svg>
